<svg width="10" height="14" viewBox="0 0 10 14" fill="none" xmlns="http://www.w3.org/2000/svg">
<path d="M1.28258 1.90786C1.08545 1.71575 0.975933 1.46298 0.986885 1.2001C0.986885 0.937215 1.0964 0.694553 1.30449 0.502445C1.50162 0.320449 1.77541 0.209229 2.06016 0.209229C2.3449 0.209229 2.6187 0.300228 2.82678 0.482224L9.02548 6.205C9.12404 6.296 9.20071 6.40722 9.25547 6.52855C9.31022 6.64988 9.34308 6.78132 9.34308 6.91276C9.34308 7.0442 9.31022 7.17565 9.25547 7.30709C9.20071 7.42842 9.12404 7.53964 9.02548 7.63064L2.82678 13.3534C2.72821 13.4444 2.60774 13.5253 2.47632 13.5759C2.33395 13.6264 2.19158 13.6567 2.04921 13.6567C1.90683 13.6567 1.75351 13.6365 1.62209 13.586C1.49066 13.5354 1.3702 13.4545 1.26068 13.3635C1.16211 13.2725 1.08545 13.1512 1.03069 13.0299C0.96498 12.9085 0.943077 12.7771 0.943077 12.6355C0.943077 12.5041 0.975932 12.3727 1.03069 12.2513C1.08545 12.13 1.17306 12.0188 1.28258 11.9177L6.7037 6.91276L5.67424 5.97245L1.28258 1.90786Z" fill="#181725"/>
</svg>
